<?xml version="1.0" encoding="UTF-8"?>
<svg version="1.1" xmlns="http://www.w3.org/2000/svg" width="225" height="225">
<path d="M0 0 C74.25 0 148.5 0 225 0 C225 74.25 225 148.5 225 225 C150.75 225 76.5 225 0 225 C0 150.75 0 76.5 0 0 Z " fill="#FDFDFD" transform="translate(0,0)"/>
<path d="M0 0 C1.28197266 -0.01160156 1.28197266 -0.01160156 2.58984375 -0.0234375 C5.63258873 0.46686264 6.86055803 1.22385402 9.0625 3.375 C9.57030869 5.96181011 9.57030869 5.96181011 9.58148193 9.12663269 C9.59539474 10.32556656 9.60930756 11.52450043 9.62364197 12.75976562 C9.6186116 14.07678467 9.61358124 15.39380371 9.60839844 16.75073242 C9.61713151 18.15018362 9.62761636 19.54962483 9.63972473 20.9490509 C9.66763858 24.75048402 9.67098825 28.5515922 9.67000484 32.35311294 C9.67312936 36.32502673 9.69873788 40.29679317 9.72198486 44.26863098 C9.76258392 51.79088055 9.78289469 59.31304334 9.79595876 66.83538562 C9.81181563 75.39885267 9.85022565 83.96217177 9.89055204 92.52555311 C9.97300438 110.14198866 10.0270631 127.75841031 10.0625 145.375 C14.36423895 143.48146606 16.22504559 140.63069217 18.703125 136.76953125 C19.14252914 136.10205368 19.58193329 135.43457611 20.03465271 134.74687195 C20.97798175 133.31206194 21.91717515 131.87452604 22.85263062 130.43457031 C25.31207247 126.6489311 27.80051747 122.88240963 30.28515625 119.11328125 C30.77969803 118.3612442 31.27423981 117.60920715 31.7837677 116.8343811 C35.99835493 110.43707077 40.34105114 104.14023412 44.75 97.875 C51.81280617 87.81021324 58.68212818 77.62378097 65.04296875 67.09765625 C71.8044445 55.97778995 71.8044445 55.97778995 77.0625 53.375 C80.56632935 52.62692968 83.56734782 52.56478706 87.0625 53.375 C89.88674288 55.56522918 91.47758603 57.20517207 93.0625 60.375 C93.16588543 61.78109612 93.20894166 63.19187249 93.22071838 64.60171509 C93.23540161 65.93106834 93.23540161 65.93106834 93.25038147 67.28727722 C93.25613693 68.26191422 93.2618924 69.23655121 93.26782227 70.24072266 C93.27772186 71.26513962 93.28762146 72.28955658 93.29782104 73.34501648 C93.32949755 76.74300803 93.35421778 80.14101357 93.37890625 83.5390625 C93.39947047 85.89033377 93.42046679 88.24160129 93.44187927 90.59286499 C93.49715493 96.79065934 93.54653996 102.98848735 93.59472656 109.18634033 C93.64490152 115.50706998 93.70060846 121.82775055 93.75585938 128.1484375 C93.86350813 140.55724978 93.96493815 152.96610461 94.0625 165.375 C91.81487987 165.53726135 89.56390288 165.65351131 87.3125 165.75 C85.43304688 165.85441406 85.43304688 165.85441406 83.515625 165.9609375 C80.0625 165.375 80.0625 165.375 77.63775635 162.83016968 C75.87921083 158.97297326 75.52172638 155.87026067 75.60839844 151.71728516 C75.60781433 150.97513763 75.60723022 150.23299011 75.60662842 149.46835327 C75.60939897 147.03310169 75.64043995 144.59909829 75.671875 142.1640625 C75.6793411 140.46870594 75.68503229 138.77334071 75.68902588 137.07797241 C75.70425324 132.62916987 75.74350961 128.18089482 75.7878418 123.7322998 C75.82885736 119.18749119 75.84705028 114.64259684 75.8671875 110.09765625 C75.91000704 101.18987319 75.97822288 92.28248057 76.0625 83.375 C72.92008205 86.46757201 70.20065004 89.37049172 67.8203125 93.0859375 C67.23725342 93.98860352 66.65419434 94.89126953 66.0534668 95.82128906 C65.43769775 96.78776367 64.82192871 97.75423828 64.1875 98.75 C62.84255666 100.83600762 61.49750155 102.92194317 60.15234375 105.0078125 C59.47026855 106.07032227 58.78819336 107.13283203 58.08544922 108.22753906 C53.13946456 115.92288473 48.12931996 123.57630185 43.11474609 131.22705078 C41.25504385 134.07965615 39.41078242 136.94143261 37.57124329 139.80703735 C35.97130899 142.29251856 34.3583158 144.76935771 32.74282837 147.24475098 C31.96469328 148.44310758 31.19190773 149.64495728 30.42489624 150.85046387 C22.81371855 162.80045031 22.81371855 162.80045031 16.0625 165.375 C9.94468178 166.5321951 4.37513096 165.63491785 -1.18359375 162.93359375 C-4.67713529 159.82908801 -6.65670415 156.38234302 -7.29961395 151.78633308 C-7.42911683 148.64449221 -7.43213362 145.52540366 -7.39160156 142.38110352 C-7.39218567 141.19014572 -7.39276978 139.99918793 -7.39337158 138.7721405 C-7.39107094 135.52444532 -7.37108397 132.2774497 -7.34307575 129.02989316 C-7.31798133 125.62932993 -7.3157138 122.22875128 -7.31097412 118.82810974 C-7.29856781 112.3966719 -7.26577839 105.96550774 -7.22557616 99.53419012 C-7.18078503 92.20893385 -7.15885303 84.88366414 -7.13879442 77.55830491 C-7.09704334 62.49705108 -7.02673741 47.43605298 -6.9375 32.375 C-7.5975 32.375 -8.2575 32.375 -8.9375 32.375 C-9.25267578 33.34566406 -9.25267578 33.34566406 -9.57421875 34.3359375 C-11.47878017 38.58163603 -14.09351252 42.1903596 -16.75 46 C-18.0951512 47.95085751 -19.43875111 49.90278509 -20.78125 51.85546875 C-21.1618306 52.40838089 -21.54241119 52.96129303 -21.93452454 53.53096008 C-27.61618574 61.79806355 -33.21018013 70.12485835 -38.81625366 78.44329834 C-40.71180591 81.25582941 -42.60838157 84.06766801 -44.50512695 86.87939453 C-49.75443872 94.66388404 -54.99690815 102.45224484 -60.19140625 110.2734375 C-63.43612552 115.15784388 -66.73372408 120.00213662 -70.0703125 124.82421875 C-71.31707642 126.63249385 -72.5633683 128.44109348 -73.80957031 130.24975586 C-74.65985862 131.47995669 -75.51315387 132.70808356 -76.36914062 133.93432617 C-77.63231975 135.74600343 -78.88355162 137.56542656 -80.1328125 139.38671875 C-80.86516113 140.44334717 -81.59750977 141.49997559 -82.35205078 142.58862305 C-84.26719804 145.42012371 -84.26719804 145.42012371 -83.9375 149.375 C-80.97552485 149.05184902 -79.37725773 148.82624102 -77.26219177 146.65594482 C-76.77017776 145.90935608 -76.27816376 145.16276733 -75.77124023 144.39355469 C-74.92027016 143.12653717 -74.92027016 143.12653717 -74.05210876 141.83392334 C-73.45612381 140.91419739 -72.86013885 139.99447144 -72.24609375 139.046875 C-71.61896988 138.10571838 -70.99184601 137.16456177 -70.34571838 136.19488525 C-68.34129054 133.1807179 -66.35771354 130.15348503 -64.375 127.125 C-62.384457 124.11380758 -60.3897721 121.10540462 -58.39356995 118.09796143 C-57.15277384 116.2254073 -55.91605619 114.35014264 -54.6839447 112.47186279 C-47.10861411 100.96055706 -47.10861411 100.96055706 -43.9375 99.375 C-39.38788721 99.13980423 -34.83451347 99.14660826 -30.27954102 99.13476562 C-28.01216051 99.1250521 -25.74568361 99.09402607 -23.47851562 99.0625 C-22.03906789 99.05597058 -20.59961366 99.05071986 -19.16015625 99.046875 C-17.84797119 99.0375293 -16.53578613 99.02818359 -15.18383789 99.01855469 C-11.9375 99.375 -11.9375 99.375 -10.01733398 100.64941406 C-8.49358151 103.08438636 -8.47406024 105.52188483 -8.34375 108.33984375 C-9.33085107 111.72326256 -10.91257749 112.60194774 -13.9375 114.375 C-16.59656584 114.48863782 -19.16224027 114.27826607 -21.81581116 114.08071899 C-27.88341268 113.7149784 -34.09316537 113.35891783 -39.23370361 117.00256348 C-44.35490776 122.27549897 -47.88221428 128.65348537 -51.5 135 C-52.63763693 136.86789767 -53.78278334 138.73124328 -54.93554688 140.58984375 C-56.56186981 143.21514443 -58.17502971 145.84134254 -59.73109436 148.50894165 C-68.12408986 162.86881184 -68.12408986 162.86881184 -75.9375 165.375 C-83.28340786 166.49633796 -88.06405106 165.44464298 -94.0625 161.078125 C-98.20415476 157.31612192 -99.70658495 154.13572728 -100.4375 148.5625 C-100.24919938 136.37431448 -89.50210405 123.85180538 -82.8125 114.1875 C-81.81596735 112.73327525 -80.82047349 111.27833821 -79.82592773 109.82275391 C-78.23523603 107.4951863 -76.64377236 105.16817782 -75.04911804 102.84332275 C-68.94586026 93.94503564 -62.91516082 84.99804896 -56.88616943 76.04934692 C-55.00328506 73.25487549 -53.11919376 70.46122108 -51.23486328 67.66772461 C-44.85890323 58.21284701 -38.50047376 48.74705656 -32.1875 39.25 C-27.07765856 31.5673472 -21.94562261 23.90015199 -16.77307129 16.25958252 C-15.65616533 14.60856868 -14.54239243 12.95543669 -13.42871094 11.30224609 C-12.75485352 10.30918457 -12.08099609 9.31612305 -11.38671875 8.29296875 C-10.79205811 7.41406982 -10.19739746 6.5351709 -9.5847168 5.62963867 C-6.60111428 1.54581338 -5.18956074 -0.0468231 0 0 Z " fill="#C16F29" transform="translate(114.9375,3.625)"/>
<path d="M0 0 C0.66 0 1.32 0 2 0 C2 25.08 2 50.16 2 76 C1.01 76.495 1.01 76.495 0 77 C-0.12375 75.88625 -0.2475 74.7725 -0.375 73.625 C-0.6465813 69.96896323 -0.6465813 69.96896323 -3 68 C-7.50445368 67.55265574 -12.02401426 67.5857965 -16.5480957 67.57446289 C-18.79425097 67.56259641 -21.03763068 67.51346102 -23.28320312 67.46289062 C-24.71613245 67.45342252 -26.14907863 67.44618934 -27.58203125 67.44140625 C-28.88374268 67.42795166 -30.1854541 67.41449707 -31.52661133 67.40063477 C-36.74537972 68.30118136 -38.50082042 70.94203897 -41.529953 75.10020447 C-43.31441272 77.64946295 -45.04236822 80.23062365 -46.76171875 82.82421875 C-47.70951958 84.23813652 -47.70951958 84.23813652 -48.6764679 85.68061829 C-50.68550589 88.6793672 -52.68690244 91.68311494 -54.6875 94.6875 C-56.69998541 97.70178581 -58.71407838 100.7149745 -60.73066711 103.72651672 C-61.98315572 105.59777471 -63.23306397 107.47076288 -64.48014832 109.34562683 C-65.0444606 110.19022964 -65.60877289 111.03483246 -66.19018555 111.9050293 C-66.933675 113.0215815 -66.933675 113.0215815 -67.69218445 114.16069031 C-69 116 -69 116 -71 118 C-73.625 117.625 -73.625 117.625 -76 117 C-75.43280239 113.00383504 -74.24325886 110.44488077 -71.984375 107.1171875 C-71.324375 106.13588867 -70.664375 105.15458984 -69.984375 104.14355469 C-69.24703125 103.06493164 -68.5096875 101.98630859 -67.75 100.875 C-66.96798183 99.7182924 -66.18675812 98.56104737 -65.40625 97.40332031 C-63.6351939 94.77926364 -61.85915143 92.15866647 -60.08007812 89.54003906 C-56.60893132 84.4281155 -53.15581404 79.30408886 -49.703125 74.1796875 C-45.8977201 68.53219465 -42.09204255 62.88489935 -38.28027344 57.24169922 C-30.24994717 45.35249106 -22.23231438 33.45590479 -14.35961914 21.46151733 C-12.79790774 19.08318676 -11.23181493 16.70776014 -9.66503906 14.33276367 C-8.87168361 13.12726905 -8.08076147 11.92017031 -7.29199219 10.71166992 C-6.12810925 8.92979814 -4.95564362 7.15386225 -3.78125 5.37890625 C-2.7612793 3.82538452 -2.7612793 3.82538452 -1.72070312 2.24047852 C-1.15287109 1.50112061 -0.58503906 0.7617627 0 0 Z " fill="#FDFCFB" transform="translate(106,36)"/>
<path d="M0 0 C1.32 0 2.64 0 4 0 C4 9.24 4 18.48 4 28 C2.35 27.67 0.7 27.34 -1 27 C-1.66 27.33 -2.32 27.66 -3 28 C-7.63213493 28.55512815 -10.98172127 28.6364242 -15 26.125 C-17.7739331 23.17769608 -18.15470803 21.57315297 -18.1875 17.625 C-18.20167969 16.85414063 -18.21585938 16.08328125 -18.23046875 15.2890625 C-17.86249047 11.63422741 -16.67769856 9.59555328 -13.9375 7.1875 C-9.82601842 5.5254117 -6.27779373 6.04545098 -2 7 C-1.67 7.33 -1.34 7.66 -1 8 C-0.67 5.36 -0.34 2.72 0 0 Z " fill="#0D0D0D" transform="translate(80,193)"/>
<path d="M0 0 C2.84057875 1.70434725 3.7082042 2.90831642 4.55859375 6.08984375 C5.16684797 9.85851166 5.28576527 12.30814725 3.8125 15.875 C0.57685244 19.66851783 -0.80377113 20.86708568 -5.9375 21.4375 C-9.02759082 21.3109041 -10.09298311 20.94542296 -12.875 19.3125 C-16.19958254 15.69457195 -17.02549542 13.42774356 -16.9375 8.5 C-15.82276962 4.33833993 -14.28026327 2.72021832 -11 0 C-7.49586172 -1.75206914 -3.72705919 -0.82897224 0 0 Z " fill="#0A0A0A" transform="translate(174,200)"/>
<path d="M0 0 C2.92970081 2.45138231 4.63434275 4.18236398 5.40234375 8 C5.61404624 12.47115664 4.761498 15.52255807 2 19 C-2.01858595 21.6790573 -5.27641721 21.69610694 -10 21 C-12.87029869 19.20606332 -14.49131638 18.01736724 -16 15 C-16.53118173 11.20584481 -16.85089348 7.53668822 -14.953125 4.109375 C-10.41137624 -1.39415585 -6.66857499 -1.83960689 0 0 Z " fill="#090909" transform="translate(110,200)"/>
<path d="M0 0 C2.80346167 1.34758672 3.85988865 2.54670163 6 5 C6.33 7.31 6.66 9.62 7 12 C1.06 12 -4.88 12 -11 12 C-8.65389418 17.13028949 -8.65389418 17.13028949 -5.0625 18 C-1.4734966 18 -0.709031 17.1672248 2 15 C4.25 15.3125 4.25 15.3125 6 16 C2.25 20.875 2.25 20.875 0 22 C-4.93378393 22.49337839 -7.06919235 22.52463704 -11.4375 20.0625 C-14.32888225 16.60694561 -15.02163864 14.62972721 -15.2421875 10.21875 C-14.85639279 6.68437266 -13.30350467 4.62343588 -11 2 C-7.29253918 -0.47164055 -4.29803138 -0.77851134 0 0 Z " fill="#040404" transform="translate(205,199)"/>
<path d="M0 0 C0 9.24 0 18.48 0 28 C-1.32 28 -2.64 28 -4 28 C-4 24.7 -4 21.4 -4 18 C-7.76408466 17.9484372 -10.45571656 17.9118428 -14 19 C-16.1803553 21.2053212 -17.72532736 23.41885563 -19.33203125 26.06640625 C-21 28 -21 28 -23.69921875 28.27734375 C-24.45847656 28.18582031 -25.21773437 28.09429687 -26 28 C-22.12955506 21.85282275 -17.84121709 16.22653379 -13.171875 10.6640625 C-10.7436905 7.68560597 -8.57615921 4.58488718 -6.484375 1.36328125 C-5 0 -5 0 0 0 Z " fill="#0D0D0D" transform="translate(39,193)"/>
<path d="M0 0 C5 1 5 1 6.66918945 2.76586914 C7.14573975 3.51473389 7.62229004 4.26359863 8.11328125 5.03515625 C8.9012207 6.24848633 8.9012207 6.24848633 9.70507812 7.48632812 C10.50075195 8.7615332 10.50075195 8.7615332 11.3125 10.0625 C12.13717773 11.34350586 12.13717773 11.34350586 12.97851562 12.65039062 C14.33269388 14.75819852 15.66817324 16.87799851 17 19 C17.33 12.73 17.66 6.46 18 0 C18.99 0 19.98 0 21 0 C21 9.24 21 18.48 21 28 C19.68 28 18.36 28 17 28 C15.67553711 26.6105957 15.67553711 26.6105957 14.52734375 24.67578125 C14.10259766 23.97646484 13.67785156 23.27714844 13.24023438 22.55664062 C12.81033203 21.81607422 12.38042969 21.07550781 11.9375 20.3125 C11.50373047 19.59126953 11.06996094 18.87003906 10.62304688 18.12695312 C9.80724894 16.7672899 8.99724018 15.40412353 8.19506836 14.03637695 C6.8129688 11.6813019 5.40491992 9.3415332 4 7 C3.67 13.93 3.34 20.86 3 28 C2.01 28 1.02 28 0 28 C0 18.76 0 9.52 0 0 Z " fill="#030303" transform="translate(133,193)"/>
<path d="M0 0 C2.4375 1.5625 2.4375 1.5625 4 4 C4.56783945 7.97487617 4.62340519 10.06489221 2.375 13.4375 C-0.71685231 15.47161336 -2.36367425 15.60605429 -6 15 C-8.375 13.5 -8.375 13.5 -10 11 C-10.63194725 7.47103617 -10.65983409 4.24204065 -8.9375 1 C-5.82090489 -0.60856522 -3.43737531 -0.42213381 0 0 Z " fill="#F9F9F9" transform="translate(76,203)"/>
<path d="M0 0 C1.32 0 2.64 0 4 0 C4.04898438 1.05960938 4.09796875 2.11921875 4.1484375 3.2109375 C4.22346709 4.59898497 4.29901485 5.98700451 4.375 7.375 C4.4059375 8.07367188 4.436875 8.77234375 4.46875 9.4921875 C4.59499498 13.70185827 4.59499498 13.70185827 7 17 C9.58354218 17.16687448 9.58354218 17.16687448 12 17 C14.15059309 13.46813168 14.3797728 10.33712007 14.625 6.25 C14.69976562 5.07953125 14.77453125 3.9090625 14.8515625 2.703125 C14.90054688 1.81109375 14.94953125 0.9190625 15 0 C15.99 0 16.98 0 18 0 C18 6.93 18 13.86 18 21 C17.01 21 16.02 21 15 21 C15 20.34 15 19.68 15 19 C14.34 19 13.68 19 13 19 C13 19.66 13 20.32 13 21 C9.96681462 21.22891965 7.02663287 21.34943364 4 21 C1.52759532 18.75938325 1.05690157 17.17070471 0 14 C-0.06970052 11.60509014 -0.08448003 9.20832309 -0.0625 6.8125 C-0.05347656 5.54019531 -0.04445312 4.26789063 -0.03515625 2.95703125 C-0.02355469 1.98121094 -0.01195312 1.00539062 0 0 Z " fill="#0C0C0C" transform="translate(41,200)"/>
<path d="M0 0 C1.9375 1 1.9375 1 3 3 C3.7518797 9.76691729 3.7518797 9.76691729 1.4375 13.5625 C-1 15 -1 15 -4.5625 15 C-8 14 -8 14 -9.9375 12.3125 C-11.33817538 9.26397123 -11.4842732 7.32073048 -11 4 C-8.05323917 -0.47907646 -5.13567732 -0.65363166 0 0 Z " fill="#F5F5F5" transform="translate(172,203)"/>
<path d="M0 0 C2.5 2.0625 2.5 2.0625 4 5 C4 8.80284671 3.7968187 11.01930006 1.375 14 C-2.07663304 15.45331917 -4.42809484 14.92604949 -8 14 C-10.54393252 10.18410122 -10.57737956 7.4700353 -10 3 C-7.83397365 -1.07722607 -4.18916271 -0.58795266 0 0 Z " fill="#F5F5F5" transform="translate(108,203)"/>
<path d="M0 0 C0.99 0 1.98 0 3 0 C3 2.31 3 4.62 3 7 C3.99 7 4.98 7 6 7 C6 7.99 6 8.98 6 10 C5.01 10 4.02 10 3 10 C3 15.94 3 21.88 3 28 C2.01 28 1.02 28 0 28 C0 22.06 0 16.12 0 10 C-0.99 10 -1.98 10 -3 10 C-3 9.01 -3 8.02 -3 7 C-2.01 7 -1.02 7 0 7 C0 4.69 0 2.38 0 0 Z " fill="#000000" transform="translate(183,193)"/>
<path d="M0 0 C1.32 0 2.64 0 4 0 C4 6.93 4 13.86 4 21 C2.68 21 1.36 21 0 21 C0 14.07 0 7.14 0 0 Z " fill="#151515" transform="translate(87,200)"/>
<path d="M0 0 C5.94 0 11.88 0 18 0 C17.67 0.99 17.34 1.98 17 3 C14.625 4.0625 14.625 4.0625 12 5 C11.01 5.66 10.02 6.32 9 7 C5.81907619 6.80119226 3.7170485 6.52583557 1.125 4.625 C0 3 0 3 0 0 Z " fill="#E5E5E5" transform="translate(194,211)"/>
<path d="M0 0 C3 0.9375 3 0.9375 6 5.9375 C1.38 5.9375 -3.24 5.9375 -8 5.9375 C-5.83198776 1.60147551 -4.96620162 -0.10346253 0 0 Z " fill="#EFEFEF" transform="translate(202,202.0625)"/>
<path d="M0 0 C0.33 0 0.66 0 1 0 C1 2.64 1 5.28 1 8 C-0.98 8 -2.96 8 -5 8 C-3.6299034 5.0490227 -2.06764583 2.51713405 0 0 Z " fill="#F9F9F9" transform="translate(34,199)"/>
</svg>
